# xmcd CD database file
#
# Track frame offsets:
#	182
#	51605
#	121315
#	170642
#
# Disc length: 2924 seconds
#
# Revision: 0
# Processed by: cddbd v1.4PL0 Copyright (c) Steve Scherf et al.
# Submitted via: CDex 1.50
#
DISCID=370b6a04
DTITLE=Dexter Gordon - Backstairs CD1
DYEAR=1981
DGENRE=Jazz
TTITLE0=Tangerine
TTITLE1=I Told You So
TTITLE2=Skylark
TTITLE3=Backstairs
EXTD=YEAR: 1981
EXTT0=
EXTT1=
EXTT2=
EXTT3=
PLAYORDER=
